<mxfile host="Electron" agent="Mozilla/5.0 (X11; Linux x86_64) AppleWebKit/537.36 (KHTML, like Gecko) draw.io/26.0.4 Chrome/128.0.6613.186 Electron/32.2.5 Safari/537.36" version="26.0.4">
  <diagram name="Seite-1" id="9-19Mf12qzJm7px6eEhO">
    <mxGraphModel dx="1434" dy="879" grid="0" gridSize="10" guides="1" tooltips="1" connect="1" arrows="1" fold="1" page="1" pageScale="1" pageWidth="1169" pageHeight="827" math="0" shadow="0">
      <root>
        <mxCell id="0" />
        <mxCell id="1" parent="0" />
        <mxCell id="8Vv46SLK8sm_092h5OlF-21" value="" style="group" parent="1" vertex="1" connectable="0">
          <mxGeometry x="135" y="30" width="330" height="650" as="geometry" />
        </mxCell>
        <mxCell id="8Vv46SLK8sm_092h5OlF-20" value="&lt;font style=&quot;font-size: 33px;&quot;&gt;&lt;b style=&quot;&quot;&gt;8&amp;nbsp;&lt;/b&gt;Grundsätze&amp;nbsp;&lt;/font&gt;&lt;div&gt;&lt;font style=&quot;font-size: 22px;&quot;&gt;nach ISO 9004:2008&lt;/font&gt;&lt;/div&gt;&lt;div&gt;&lt;font style=&quot;font-size: 16px;&quot;&gt;&lt;b style=&quot;&quot;&gt;veraltet&lt;/b&gt; seit ISO 9004:2018&lt;/font&gt;&lt;/div&gt;" style="rounded=1;whiteSpace=wrap;html=1;verticalAlign=top;" parent="8Vv46SLK8sm_092h5OlF-21" vertex="1">
          <mxGeometry width="330" height="650" as="geometry" />
        </mxCell>
        <mxCell id="8Vv46SLK8sm_092h5OlF-9" value="&lt;font style=&quot;font-size: 19px;&quot;&gt;1. Kundenorientierung&lt;/font&gt;" style="rounded=1;whiteSpace=wrap;html=1;" parent="8Vv46SLK8sm_092h5OlF-21" vertex="1">
          <mxGeometry x="25" y="99" width="280" height="60" as="geometry" />
        </mxCell>
        <mxCell id="8Vv46SLK8sm_092h5OlF-10" value="&lt;font style=&quot;font-size: 19px;&quot;&gt;2. Führung&lt;/font&gt;" style="rounded=1;whiteSpace=wrap;html=1;" parent="8Vv46SLK8sm_092h5OlF-21" vertex="1">
          <mxGeometry x="25" y="170" width="280" height="60" as="geometry" />
        </mxCell>
        <mxCell id="8Vv46SLK8sm_092h5OlF-11" value="&lt;font style=&quot;font-size: 19px;&quot;&gt;3. Einbeziehung von Mitarbeitern&lt;/font&gt;" style="rounded=1;whiteSpace=wrap;html=1;" parent="8Vv46SLK8sm_092h5OlF-21" vertex="1">
          <mxGeometry x="25" y="240" width="280" height="60" as="geometry" />
        </mxCell>
        <mxCell id="8Vv46SLK8sm_092h5OlF-12" value="&lt;font style=&quot;font-size: 19px;&quot;&gt;6. ständige Verbesserung&lt;/font&gt;" style="rounded=1;whiteSpace=wrap;html=1;" parent="8Vv46SLK8sm_092h5OlF-21" vertex="1">
          <mxGeometry x="25" y="430" width="280" height="60" as="geometry" />
        </mxCell>
        <mxCell id="8Vv46SLK8sm_092h5OlF-13" value="&lt;font style=&quot;font-size: 19px;&quot;&gt;7. Sachbezogener Ansatz zur Entscheidungsfindung&lt;/font&gt;" style="rounded=1;whiteSpace=wrap;html=1;" parent="8Vv46SLK8sm_092h5OlF-21" vertex="1">
          <mxGeometry x="25" y="500" width="280" height="60" as="geometry" />
        </mxCell>
        <mxCell id="8Vv46SLK8sm_092h5OlF-14" value="&lt;font style=&quot;font-size: 19px;&quot;&gt;8. Lieferantenbeziehung zum gegenseitigen Nutzen&lt;/font&gt;" style="rounded=1;whiteSpace=wrap;html=1;" parent="8Vv46SLK8sm_092h5OlF-21" vertex="1">
          <mxGeometry x="25" y="570" width="280" height="60" as="geometry" />
        </mxCell>
        <mxCell id="8Vv46SLK8sm_092h5OlF-15" value="&lt;font style=&quot;font-size: 19px;&quot;&gt;4. Prozessorientierter Ansatz&lt;/font&gt;" style="rounded=1;whiteSpace=wrap;html=1;" parent="8Vv46SLK8sm_092h5OlF-21" vertex="1">
          <mxGeometry x="25" y="320" width="280" height="40" as="geometry" />
        </mxCell>
        <mxCell id="8Vv46SLK8sm_092h5OlF-16" value="&lt;font style=&quot;font-size: 19px;&quot;&gt;5. Sytemorientierter Ansatz&lt;/font&gt;" style="rounded=1;whiteSpace=wrap;html=1;" parent="8Vv46SLK8sm_092h5OlF-21" vertex="1">
          <mxGeometry x="25" y="370" width="280" height="40" as="geometry" />
        </mxCell>
        <mxCell id="8Vv46SLK8sm_092h5OlF-22" value="" style="group" parent="1" vertex="1" connectable="0">
          <mxGeometry x="610" y="30" width="330" height="650" as="geometry" />
        </mxCell>
        <mxCell id="8Vv46SLK8sm_092h5OlF-19" value="&lt;font style=&quot;font-size: 33px;&quot;&gt;&lt;b style=&quot;&quot;&gt;7 &lt;/b&gt;Grundsätze&amp;nbsp;&lt;/font&gt;&lt;div&gt;&lt;font style=&quot;font-size: 22px;&quot;&gt;nach ISO 9001:2014&lt;/font&gt;&lt;/div&gt;" style="rounded=1;whiteSpace=wrap;html=1;verticalAlign=top;" parent="8Vv46SLK8sm_092h5OlF-22" vertex="1">
          <mxGeometry width="330" height="650" as="geometry" />
        </mxCell>
        <mxCell id="8Vv46SLK8sm_092h5OlF-1" value="&lt;font style=&quot;font-size: 19px;&quot;&gt;1. Kundenorientierung&lt;/font&gt;" style="rounded=1;whiteSpace=wrap;html=1;" parent="8Vv46SLK8sm_092h5OlF-22" vertex="1">
          <mxGeometry x="20" y="100" width="280" height="60" as="geometry" />
        </mxCell>
        <mxCell id="8Vv46SLK8sm_092h5OlF-2" value="&lt;font style=&quot;font-size: 19px;&quot;&gt;2. Führung&lt;/font&gt;" style="rounded=1;whiteSpace=wrap;html=1;" parent="8Vv46SLK8sm_092h5OlF-22" vertex="1">
          <mxGeometry x="20" y="170" width="280" height="60" as="geometry" />
        </mxCell>
        <mxCell id="8Vv46SLK8sm_092h5OlF-3" value="&lt;font style=&quot;font-size: 19px;&quot;&gt;3. Einbeziehung von Personen&lt;/font&gt;" style="rounded=1;whiteSpace=wrap;html=1;" parent="8Vv46SLK8sm_092h5OlF-22" vertex="1">
          <mxGeometry x="20" y="240" width="280" height="60" as="geometry" />
        </mxCell>
        <mxCell id="8Vv46SLK8sm_092h5OlF-4" value="&lt;font style=&quot;font-size: 19px;&quot;&gt;5. Verbesserung&lt;/font&gt;" style="rounded=1;whiteSpace=wrap;html=1;" parent="8Vv46SLK8sm_092h5OlF-22" vertex="1">
          <mxGeometry x="20" y="430" width="280" height="60" as="geometry" />
        </mxCell>
        <mxCell id="8Vv46SLK8sm_092h5OlF-5" value="&lt;font style=&quot;font-size: 19px;&quot;&gt;6. Faktengestütze Entscheidungsfindung&lt;/font&gt;" style="rounded=1;whiteSpace=wrap;html=1;" parent="8Vv46SLK8sm_092h5OlF-22" vertex="1">
          <mxGeometry x="20" y="500" width="280" height="60" as="geometry" />
        </mxCell>
        <mxCell id="8Vv46SLK8sm_092h5OlF-6" value="&lt;font style=&quot;font-size: 19px;&quot;&gt;7. Beziehungsmangement&lt;/font&gt;" style="rounded=1;whiteSpace=wrap;html=1;" parent="8Vv46SLK8sm_092h5OlF-22" vertex="1">
          <mxGeometry x="20" y="570" width="280" height="60" as="geometry" />
        </mxCell>
        <mxCell id="8Vv46SLK8sm_092h5OlF-7" value="&lt;font style=&quot;font-size: 19px;&quot;&gt;4. Prozessorientierter Ansatz&lt;/font&gt;" style="rounded=1;whiteSpace=wrap;html=1;" parent="8Vv46SLK8sm_092h5OlF-22" vertex="1">
          <mxGeometry x="20" y="320" width="280" height="90" as="geometry" />
        </mxCell>
        <mxCell id="8Vv46SLK8sm_092h5OlF-17" value="fasst&lt;div&gt;zusammen&lt;/div&gt;" style="shape=step;perimeter=stepPerimeter;whiteSpace=wrap;html=1;fixedSize=1;flipH=0;size=50;fillColor=#ffe6cc;strokeColor=#d79b00;" parent="1" vertex="1">
          <mxGeometry x="433" y="368" width="200" height="60" as="geometry" />
        </mxCell>
        <mxCell id="8Vv46SLK8sm_092h5OlF-23" value="erweitert" style="html=1;shadow=0;dashed=0;align=center;verticalAlign=middle;shape=mxgraph.arrows2.arrow;dy=0;dx=36;notch=0;fillColor=#ffe6cc;strokeColor=#d79b00;" parent="1" vertex="1">
          <mxGeometry x="436" y="286" width="198" height="30" as="geometry" />
        </mxCell>
        <mxCell id="8Vv46SLK8sm_092h5OlF-24" value="vereinfacht" style="html=1;shadow=0;dashed=0;align=center;verticalAlign=middle;shape=mxgraph.arrows2.arrow;dy=0;dx=36;notch=0;fillColor=#ffe6cc;strokeColor=#d79b00;" parent="1" vertex="1">
          <mxGeometry x="436" y="476" width="198" height="30" as="geometry" />
        </mxCell>
        <mxCell id="8Vv46SLK8sm_092h5OlF-25" value="&amp;nbsp;vereinfacht" style="html=1;shadow=0;dashed=0;align=center;verticalAlign=middle;shape=mxgraph.arrows2.arrow;dy=0;dx=36;notch=0;fillColor=#ffe6cc;strokeColor=#d79b00;" parent="1" vertex="1">
          <mxGeometry x="436" y="546" width="198" height="30" as="geometry" />
        </mxCell>
        <mxCell id="8Vv46SLK8sm_092h5OlF-26" value="vereinfacht und erweitert" style="html=1;shadow=0;dashed=0;align=center;verticalAlign=middle;shape=mxgraph.arrows2.arrow;dy=0;dx=36;notch=0;fillColor=#ffe6cc;strokeColor=#d79b00;" parent="1" vertex="1">
          <mxGeometry x="436" y="616" width="198" height="30" as="geometry" />
        </mxCell>
      </root>
    </mxGraphModel>
  </diagram>
</mxfile>
